
<svg width="45" height="45" fill="none" xmlns="http://www.w3.org/2000/svg"><rect width="45" height="45" rx="22.5" transform="matrix(-1 0 0 1 45 0)" fill="#F6F6F6"/><g clip-path="url(#a)"><mask id="b" style="mask-type:luminance" maskUnits="userSpaceOnUse" x="15" y="11" width="15" height="23"><path d="M15.875 11.25h13.5v22.5h-13.5v-22.5Z" fill="#fff"/></mask><g mask="url(#b)"><path d="m20.135 22.5 8.164 8.078a1.498 1.498 0 0 1-2.108 2.13l-8.186-8.1-2.13-2.108 2.13-2.108 8.186-8.1a1.498 1.498 0 1 1 2.108 2.13L20.135 22.5Z" fill="#A72536"/></g></g><defs><clipPath id="a"><path fill="#fff" transform="matrix(-1 0 0 1 29.5 11)" d="M0 0h14v23H0z"/></clipPath></defs></svg>
