<svg width="16" height="16" viewBox="0 0 16 16" fill="none" xmlns="http://www.w3.org/2000/svg">
<mask id="mask0_2017_32" style="mask-type:alpha" maskUnits="userSpaceOnUse" x="0" y="0" width="16" height="16">
<rect width="16" height="16" fill="#D9D9D9"/>
</mask>
<g mask="url(#mask0_2017_32)">
<path d="M4.66668 13.3333V12H4.00001C3.81112 12 3.65279 11.9361 3.52501 11.8083C3.39723 11.6806 3.33334 11.5222 3.33334 11.3333C3.33334 11.1444 3.39723 10.9861 3.52501 10.8583C3.65279 10.7306 3.81112 10.6667 4.00001 10.6667H4.66668V9.33333H4.00001C3.81112 9.33333 3.65279 9.26944 3.52501 9.14167C3.39723 9.01389 3.33334 8.85556 3.33334 8.66667C3.33334 8.47778 3.39723 8.31944 3.52501 8.19167C3.65279 8.06389 3.81112 8 4.00001 8H4.66668V2.66667C4.66668 2.47778 4.73057 2.31944 4.85834 2.19167C4.98612 2.06389 5.14445 2 5.33334 2H9.00001C10.0222 2 10.8889 2.35556 11.6 3.06667C12.3111 3.77778 12.6667 4.64444 12.6667 5.66667C12.6667 6.68889 12.3111 7.55556 11.6 8.26667C10.8889 8.97778 10.0222 9.33333 9.00001 9.33333H6.00001V10.6667H8.00001C8.1889 10.6667 8.34723 10.7306 8.47501 10.8583C8.60279 10.9861 8.66668 11.1444 8.66668 11.3333C8.66668 11.5222 8.60279 11.6806 8.47501 11.8083C8.34723 11.9361 8.1889 12 8.00001 12H6.00001V13.3333C6.00001 13.5222 5.93612 13.6806 5.80834 13.8083C5.68057 13.9361 5.52223 14 5.33334 14C5.14445 14 4.98612 13.9361 4.85834 13.8083C4.73057 13.6806 4.66668 13.5222 4.66668 13.3333ZM6.00001 8H9.00001C9.64445 8 10.1945 7.77222 10.65 7.31667C11.1056 6.86111 11.3333 6.31111 11.3333 5.66667C11.3333 5.02222 11.1056 4.47222 10.65 4.01667C10.1945 3.56111 9.64445 3.33333 9.00001 3.33333H6.00001V8Z" fill="#AB9C9E"/>
</g>
</svg>
