<svg width="16" height="16" viewBox="0 0 16 16" fill="none" xmlns="http://www.w3.org/2000/svg">
<mask id="mask0_2017_29" style="mask-type:alpha" maskUnits="userSpaceOnUse" x="0" y="0" width="16" height="16">
<rect width="16" height="16" fill="#D9D9D9"/>
</mask>
<g mask="url(#mask0_2017_29)">
<path d="M4.575 13.3772V12.1515H4C3.7872 12.1515 3.60761 12.0783 3.46124 11.9319C3.31486 11.7855 3.24167 11.6059 3.24167 11.3931C3.24167 11.1803 3.31486 11.0007 3.46124 10.8544C3.60761 10.708 3.7872 10.6348 4 10.6348H4.575V9.38119H4C3.7872 9.38119 3.60761 9.308 3.46124 9.16162C3.31486 9.01524 3.24167 8.83565 3.24167 8.62285C3.24167 8.41004 3.31486 8.23045 3.46124 8.08407C3.60761 7.93769 3.7872 7.8645 4 7.8645H4.575V2.62285C4.575 2.41004 4.64819 2.23045 4.79457 2.08407C4.94095 1.93769 5.12054 1.8645 5.33334 1.8645H9C10.0461 1.8645 10.9341 2.22936 11.6638 2.95907C12.3935 3.68878 12.7583 4.57671 12.7583 5.62285C12.7583 6.66899 12.3935 7.55691 11.6638 8.28662C10.9341 9.01633 10.0461 9.38119 9 9.38119H6.09167V10.6348H8C8.2128 10.6348 8.39239 10.708 8.53877 10.8544C8.68515 11.0007 8.75834 11.1803 8.75834 11.3931C8.75834 11.6059 8.68515 11.7855 8.53877 11.9319C8.39239 12.0783 8.2128 12.1515 8 12.1515H6.09167V13.3772C6.09167 13.59 6.01848 13.7696 5.8721 13.916C5.72572 14.0623 5.54614 14.1355 5.33334 14.1355C5.12054 14.1355 4.94095 14.0623 4.79457 13.916C4.64819 13.7696 4.575 13.59 4.575 13.3772ZM6.09167 7.8645H9C9.62054 7.8645 10.1493 7.64602 10.5862 7.20907C11.0232 6.77211 11.2417 6.24337 11.2417 5.62285C11.2417 5.00232 11.0232 4.47357 10.5862 4.03662C10.1493 3.59966 9.62054 3.38118 9 3.38118H6.09167V7.8645Z" fill="#5B484A"/>
</g>
</svg>
