<svg width="16" height="16" viewBox="0 0 16 16" fill="none" xmlns="http://www.w3.org/2000/svg">
<path d="M7.97918 9.20835L2.22918 14.9167C2.0764 15.0695 1.88543 15.1493 1.65627 15.1563C1.4271 15.1632 1.22918 15.0834 1.06252 14.9167C0.909738 14.7639 0.833349 14.5695 0.833349 14.3334C0.833349 14.0972 0.909738 13.9028 1.06252 13.75L9.02085 5.79168C8.77085 5.20835 8.73613 4.54863 8.91668 3.81252C9.09724 3.07641 9.49307 2.41668 10.1042 1.83335C10.8403 1.09724 11.6597 0.666685 12.5625 0.541685C13.4653 0.416685 14.2014 0.638907 14.7708 1.20835C15.3403 1.7778 15.5625 2.51391 15.4375 3.41668C15.3125 4.31946 14.882 5.13891 14.1458 5.87502C13.5625 6.48613 12.9028 6.88196 12.1667 7.06252C11.4306 7.24307 10.7708 7.20835 10.1875 6.95835L9.14585 8.00002L14.8958 13.75C15.0486 13.9028 15.1285 14.0938 15.1354 14.3229C15.1424 14.5521 15.0625 14.75 14.8958 14.9167C14.7431 15.0695 14.5486 15.1459 14.3125 15.1459C14.0764 15.1459 13.882 15.0695 13.7292 14.9167L7.97918 9.20835ZM4.10418 8.37502L1.60418 5.87502C1.02085 5.29168 0.652793 4.55557 0.500015 3.66668C0.347238 2.7778 0.520849 1.98613 1.02085 1.29168C1.17363 1.08335 1.37849 0.965296 1.63543 0.937518C1.89238 0.90974 2.11113 0.993073 2.29168 1.18752L6.77085 5.70835L4.10418 8.37502Z" fill="#584B4D"/>
</svg>
