<svg width="21.58" height="21.548" fill="none" xmlns="http://www.w3.org/2000/svg"><path d="m21.58 19.89-5.82-5.81a8.728 8.728 0 0 0 1.7-6.49 8.756 8.756 0 0 0-3.38-5.8A8.766 8.766 0 0 0 1.79 3.44a8.81 8.81 0 0 0-1.78 5.9 8.848 8.848 0 0 0 2.55 5.62 8.8 8.8 0 0 0 5.61 2.55c2.12.14 4.22-.49 5.91-1.78l5.81 5.81 1.69-1.65ZM8.82 15.14a6.39 6.39 0 0 1-3.53-1.06 6.326 6.326 0 0 1-2.34-2.85 6.314 6.314 0 0 1-.37-3.67 6.37 6.37 0 0 1 1.73-3.25c.89-.89 2.02-1.49 3.25-1.74s2.51-.12 3.67.36c1.16.47 2.15 1.29 2.85 2.33a6.31 6.31 0 0 1 1.07 3.52c0 .84-.16 1.66-.48 2.43-.31.77-.78 1.47-1.37 2.06a6.376 6.376 0 0 1-4.48 1.87Z" fill="#FFF"/></svg>
