<svg width="18" height="17" viewBox="0 0 18 17" fill="none" xmlns="http://www.w3.org/2000/svg">
<path d="M8.99999 12.3333C9.66666 12.3333 10.2604 12.1354 10.7812 11.7395C11.3021 11.3437 11.6805 10.8333 11.9167 10.2083H6.08332C6.31943 10.8333 6.69791 11.3437 7.21874 11.7395C7.73957 12.1354 8.33332 12.3333 8.99999 12.3333ZM6.91666 8.99996C7.26388 8.99996 7.55902 8.87843 7.80207 8.63538C8.04513 8.39232 8.16666 8.09718 8.16666 7.74996C8.16666 7.40274 8.04513 7.1076 7.80207 6.86454C7.55902 6.62149 7.26388 6.49996 6.91666 6.49996C6.56943 6.49996 6.2743 6.62149 6.03124 6.86454C5.78818 7.1076 5.66666 7.40274 5.66666 7.74996C5.66666 8.09718 5.78818 8.39232 6.03124 8.63538C6.2743 8.87843 6.56943 8.99996 6.91666 8.99996ZM11.0833 8.99996C11.4305 8.99996 11.7257 8.87843 11.9687 8.63538C12.2118 8.39232 12.3333 8.09718 12.3333 7.74996C12.3333 7.40274 12.2118 7.1076 11.9687 6.86454C11.7257 6.62149 11.4305 6.49996 11.0833 6.49996C10.7361 6.49996 10.441 6.62149 10.1979 6.86454C9.95485 7.1076 9.83332 7.40274 9.83332 7.74996C9.83332 8.09718 9.95485 8.39232 10.1979 8.63538C10.441 8.87843 10.7361 8.99996 11.0833 8.99996ZM5.35416 4.33329L7.68749 1.31246C7.85416 1.09024 8.05207 0.927043 8.28124 0.822876C8.51041 0.718709 8.74999 0.666626 8.99999 0.666626C9.24999 0.666626 9.48957 0.718709 9.71874 0.822876C9.94791 0.927043 10.1458 1.09024 10.3125 1.31246L12.6458 4.33329L16.1875 5.52079C16.5486 5.6319 16.8333 5.83676 17.0417 6.13538C17.25 6.43399 17.3542 6.76385 17.3542 7.12496C17.3542 7.29163 17.3299 7.45829 17.2812 7.62496C17.2326 7.79163 17.1528 7.95135 17.0417 8.10413L14.75 11.3541L14.8333 14.7708C14.8472 15.2569 14.6875 15.6666 14.3542 16C14.0208 16.3333 13.6319 16.5 13.1875 16.5C13.1597 16.5 13.0069 16.4791 12.7292 16.4375L8.99999 15.3958L5.27082 16.4375C5.20138 16.4652 5.12499 16.4826 5.04166 16.4895C4.95832 16.4965 4.88193 16.5 4.81249 16.5C4.36805 16.5 3.97916 16.3333 3.64582 16C3.31249 15.6666 3.15277 15.2569 3.16666 14.7708L3.24999 11.3333L0.979156 8.10413C0.868045 7.95135 0.788184 7.79163 0.739573 7.62496C0.690962 7.45829 0.666656 7.29163 0.666656 7.12496C0.666656 6.77774 0.767351 6.45482 0.96874 6.15621C1.17013 5.8576 1.45138 5.64579 1.81249 5.52079L5.35416 4.33329Z" fill="#A72536"/>
</svg>
